0
SECTION
2
HEADER
9
$INSUNITS
70
4
0
ENDSEC
0
SECTION
2
TABLES
0
TABLE
2
LTYPE
0
LTYPE
72
65
70
64
2
CONTINUOUS
3
______
73
0
40
0
0
ENDTAB
0
TABLE
2
LAYER
0
ENDTAB
0
ENDSEC
0
SECTION
2
ENTITIES
0
LINE
8
0
10
273.4303982
20
-123.1414238
11
287.0231388
21
-137.341544
0
LINE
8
0
10
297.6870323
20
-138.1451514
11
321.6329641
21
-119.6824149
0
LINE
8
0
10
325.7007058
20
-118.0597647
11
383.3844134
21
-112.1374626
0
LINE
8
0
10
390.5673598
20
-104.1792955
11
390.5673598
21
-61.5273716
0
LINE
8
0
10
386.0376047
20
-54.3192234
11
364.7479203
21
-44.0696528
0
LINE
8
0
10
363.1206722
20
-43.4929849
11
343.5474549
21
-38.8591717
0
LINE
8
0
10
340.452982
20
-38.7424812
11
322.9737709
21
-41.5109163
0
LINE
8
0
10
321.5741805
20
-41.8644532
11
284.77964
21
-54.7877674
0
LINE
8
0
10
283.7918672
20
-55.0649785
11
266.6880026
21
-58.7005172
0
LINE
8
0
10
260.5261154
20
-68.1889916
11
271.3843157
21
-119.2728079
0
ARC
8
0
10
292.8022371
20
-131.8096345
40
8
50
223.7480673
51
307.6328571
0
ARC
8
0
10
326.5177594
20
-126.0179318
40
8
50
95.8619364
51
127.6328571
0
ARC
8
0
10
382.5673598
20
-104.1792955
40
8
50
275.8619364
51
0
0
ARC
8
0
10
382.5673598
20
-61.5273716
40
8
50
0
51
64.2922723
0
ARC
8
0
10
361.2776754
20
-51.277801
40
8
50
64.2922723
51
76.6808727
0
ARC
8
0
10
341.704458
20
-46.6439879
40
8
50
76.6808727
51
99.0000023
0
ARC
8
0
10
324.2252469
20
-49.4124229
40
8
50
99.0000023
51
109.352758
0
ARC
8
0
10
282.1285736
20
-47.2397977
40
8
50
282.0000005
51
289.352758
0
ARC
8
0
10
268.3512962
20
-66.525698
40
8
50
102.0000005
51
192.0000005
0
ARC
8
0
10
279.2094965
20
-117.6095143
40
8
50
192.0000005
51
223.7480673
0
LINE
8
0
10
369.8173598
20
-108.25
11
387.3173598
21
-108.25
0
LINE
8
0
10
387.3173598
20
-108.25
11
387.3173598
21
-91.75
0
LINE
8
0
10
387.3173598
20
-91.75
11
369.8173598
21
-91.75
0
LINE
8
0
10
369.8173598
20
-91.75
11
369.8173598
21
-108.25
0
LINE
8
0
10
369.8173598
20
-91.25
11
387.3173598
21
-91.25
0
LINE
8
0
10
387.3173598
20
-91.25
11
387.3173598
21
-74.75
0
LINE
8
0
10
387.3173598
20
-74.75
11
369.8173598
21
-74.75
0
LINE
8
0
10
369.8173598
20
-74.75
11
369.8173598
21
-91.25
0
LINE
8
0
10
369.8173598
20
-74.25
11
387.3173598
21
-74.25
0
LINE
8
0
10
387.3173598
20
-74.25
11
387.3173598
21
-57.75
0
LINE
8
0
10
387.3173598
20
-57.75
11
369.8173598
21
-57.75
0
LINE
8
0
10
369.8173598
20
-57.75
11
369.8173598
21
-74.25
0
LINE
8
0
10
350.727653
20
-97.1194297
11
368.1317862
21
-95.2901816
0
LINE
8
0
10
368.1317862
20
-95.2901816
11
366.4070666
21
-78.8805703
0
LINE
8
0
10
366.4070666
20
-78.8805703
11
349.0029334
21
-80.7098184
0
LINE
8
0
10
349.0029334
20
-80.7098184
11
350.727653
21
-97.1194297
0
LINE
8
0
10
348.9506691
20
-80.2125575
11
366.3548023
21
-78.3833094
0
LINE
8
0
10
366.3548023
20
-78.3833094
11
364.6300827
21
-61.9736981
0
LINE
8
0
10
364.6300827
20
-61.9736981
11
347.2259495
21
-63.8029462
0
LINE
8
0
10
347.2259495
20
-63.8029462
11
348.9506691
21
-80.2125575
0
LINE
8
0
10
347.1736852
20
-63.3056853
11
364.5778184
21
-61.4764372
0
LINE
8
0
10
364.5778184
20
-61.4764372
11
362.8530988
21
-45.0668259
0
LINE
8
0
10
362.8530988
20
-45.0668259
11
345.4489656
21
-46.896074
0
LINE
8
0
10
345.4489656
20
-46.896074
11
347.1736852
21
-63.3056853
0
LINE
8
0
10
331.5880559
20
-92.5416179
11
348.8726018
21
-89.8040147
0
LINE
8
0
10
348.8726018
20
-89.8040147
11
346.2914331
21
-73.5071571
0
LINE
8
0
10
346.2914331
20
-73.5071571
11
329.0068872
21
-76.2447603
0
LINE
8
0
10
329.0068872
20
-76.2447603
11
331.5880559
21
-92.5416179
0
LINE
8
0
10
328.92867
20
-75.7509161
11
346.2132159
21
-73.0133129
0
LINE
8
0
10
346.2132159
20
-73.0133129
11
343.6320472
21
-56.7164553
0
LINE
8
0
10
343.6320472
20
-56.7164553
11
326.3475013
21
-59.4540585
0
LINE
8
0
10
326.3475013
20
-59.4540585
11
328.92867
21
-75.7509161
0
LINE
8
0
10
326.2692841
20
-58.9602143
11
343.55383
21
-56.2226111
0
LINE
8
0
10
343.55383
20
-56.2226111
11
340.9726613
21
-39.9257535
0
LINE
8
0
10
340.9726613
20
-39.9257535
11
323.6881154
21
-42.6633567
0
LINE
8
0
10
323.6881154
20
-42.6633567
11
326.2692841
21
-58.9602143
0
LINE
8
0
10
313.981878
20
-99.6841118
11
331.1603537
21
-96.3449544
0
LINE
8
0
10
331.1603537
20
-96.3449544
11
328.0120052
21
-80.1481058
0
LINE
8
0
10
328.0120052
20
-80.1481058
11
310.8335295
21
-83.4872632
0
LINE
8
0
10
310.8335295
20
-83.4872632
11
313.981878
21
-99.6841118
0
LINE
8
0
10
310.7381251
20
-82.9964497
11
327.9166008
21
-79.6572923
0
LINE
8
0
10
327.9166008
20
-79.6572923
11
324.7682523
21
-63.4604437
0
LINE
8
0
10
324.7682523
20
-63.4604437
11
307.5897766
21
-66.7996011
0
LINE
8
0
10
307.5897766
20
-66.7996011
11
310.7381251
21
-82.9964497
0
LINE
8
0
10
307.4943722
20
-66.3087876
11
324.6728479
21
-62.9696302
0
LINE
8
0
10
324.6728479
20
-62.9696302
11
321.5244994
21
-46.7727816
0
LINE
8
0
10
321.5244994
20
-46.7727816
11
304.3460237
21
-50.111939
0
LINE
8
0
10
304.3460237
20
-50.111939
11
307.4943722
21
-66.3087876
0
LINE
8
0
10
296.2767739
20
-105.3173554
11
313.394357
21
-101.6789008
0
LINE
8
0
10
313.394357
20
-101.6789008
11
309.9638141
21
-85.5394654
0
LINE
8
0
10
309.9638141
20
-85.5394654
11
292.846231
21
-89.17792
0
LINE
8
0
10
292.846231
20
-89.17792
11
296.2767739
21
-105.3173554
0
LINE
8
0
10
292.7422752
20
-88.6888462
11
309.8598583
21
-85.0503916
0
LINE
8
0
10
309.8598583
20
-85.0503916
11
306.4293154
21
-68.9109562
0
LINE
8
0
10
306.4293154
20
-68.9109562
11
289.3117323
21
-72.5494108
0
LINE
8
0
10
289.3117323
20
-72.5494108
11
292.7422752
21
-88.6888462
0
LINE
8
0
10
289.2077765
20
-72.060337
11
306.3253596
21
-68.4218824
0
LINE
8
0
10
306.3253596
20
-68.4218824
11
302.8948167
21
-52.282447
0
LINE
8
0
10
302.8948167
20
-52.282447
11
285.7772336
21
-55.9209016
0
LINE
8
0
10
285.7772336
20
-55.9209016
11
289.2077765
21
-72.060337
0
LINE
8
0
10
306.1620851
20
-125.690848
11
321.7546993
21
-117.7460143
0
LINE
8
0
10
321.7546993
20
-117.7460143
11
314.2638561
21
-103.0444066
0
LINE
8
0
10
314.2638561
20
-103.0444066
11
298.6712419
21
-110.9892403
0
LINE
8
0
10
298.6712419
20
-110.9892403
11
306.1620851
21
-125.690848
0
LINE
8
0
10
292.3014902
20
-138.0189754
11
305.3065246
21
-126.3091898
0
LINE
8
0
10
305.3065246
20
-126.3091898
11
294.2658696
21
-114.0473002
0
LINE
8
0
10
294.2658696
20
-114.0473002
11
281.2608352
21
-125.7570858
0
LINE
8
0
10
281.2608352
20
-125.7570858
11
292.3014902
21
-138.0189754
0
ENDSEC
0
EOF