0
SECTION
2
HEADER
9
$INSUNITS
70
4
0
ENDSEC
0
SECTION
2
TABLES
0
TABLE
2
LTYPE
0
LTYPE
72
65
70
64
2
CONTINUOUS
3
______
73
0
40
0
0
ENDTAB
0
TABLE
2
LAYER
0
ENDTAB
0
ENDSEC
0
SECTION
2
ENTITIES
0
LINE
8
0
10
91.25
20
-108.25
11
108.75
21
-108.25
0
LINE
8
0
10
108.75
20
-108.25
11
108.75
21
-91.75
0
LINE
8
0
10
108.75
20
-91.75
11
91.25
21
-91.75
0
LINE
8
0
10
91.25
20
-91.75
11
91.25
21
-108.25
0
LINE
8
0
10
91.25
20
-91.25
11
108.75
21
-91.25
0
LINE
8
0
10
108.75
20
-91.25
11
108.75
21
-74.75
0
LINE
8
0
10
108.75
20
-74.75
11
91.25
21
-74.75
0
LINE
8
0
10
91.25
20
-74.75
11
91.25
21
-91.25
0
LINE
8
0
10
91.25
20
-74.25
11
108.75
21
-74.25
0
LINE
8
0
10
108.75
20
-74.25
11
108.75
21
-57.75
0
LINE
8
0
10
108.75
20
-57.75
11
91.25
21
-57.75
0
LINE
8
0
10
91.25
20
-57.75
11
91.25
21
-74.25
0
LINE
8
0
10
110.4355736
20
-95.2901816
11
127.8397068
21
-97.1194297
0
LINE
8
0
10
127.8397068
20
-97.1194297
11
129.5644264
21
-80.7098184
0
LINE
8
0
10
129.5644264
20
-80.7098184
11
112.1602932
21
-78.8805703
0
LINE
8
0
10
112.1602932
20
-78.8805703
11
110.4355736
21
-95.2901816
0
LINE
8
0
10
112.2125575
20
-78.3833094
11
129.6166907
21
-80.2125575
0
LINE
8
0
10
129.6166907
20
-80.2125575
11
131.3414103
21
-63.8029462
0
LINE
8
0
10
131.3414103
20
-63.8029462
11
113.9372771
21
-61.9736981
0
LINE
8
0
10
113.9372771
20
-61.9736981
11
112.2125575
21
-78.3833094
0
LINE
8
0
10
113.9895414
20
-61.4764372
11
131.3936746
21
-63.3056853
0
LINE
8
0
10
131.3936746
20
-63.3056853
11
133.1183942
21
-46.896074
0
LINE
8
0
10
133.1183942
20
-46.896074
11
115.714261
21
-45.0668259
0
LINE
8
0
10
115.714261
20
-45.0668259
11
113.9895414
21
-61.4764372
0
LINE
8
0
10
129.694758
20
-89.8040147
11
146.9793039
21
-92.5416179
0
LINE
8
0
10
146.9793039
20
-92.5416179
11
149.5604726
21
-76.2447603
0
LINE
8
0
10
149.5604726
20
-76.2447603
11
132.2759267
21
-73.5071571
0
LINE
8
0
10
132.2759267
20
-73.5071571
11
129.694758
21
-89.8040147
0
LINE
8
0
10
132.3541439
20
-73.0133129
11
149.6386898
21
-75.7509161
0
LINE
8
0
10
149.6386898
20
-75.7509161
11
152.2198585
21
-59.4540585
0
LINE
8
0
10
152.2198585
20
-59.4540585
11
134.9353126
21
-56.7164553
0
LINE
8
0
10
134.9353126
20
-56.7164553
11
132.3541439
21
-73.0133129
0
LINE
8
0
10
135.0135298
20
-56.2226111
11
152.2980757
21
-58.9602143
0
LINE
8
0
10
152.2980757
20
-58.9602143
11
154.8792444
21
-42.6633567
0
LINE
8
0
10
154.8792444
20
-42.6633567
11
137.5946985
21
-39.9257535
0
LINE
8
0
10
137.5946985
20
-39.9257535
11
135.0135298
21
-56.2226111
0
LINE
8
0
10
147.4070061
20
-96.3449544
11
164.5854818
21
-99.6841118
0
LINE
8
0
10
164.5854818
20
-99.6841118
11
167.7338303
21
-83.4872632
0
LINE
8
0
10
167.7338303
20
-83.4872632
11
150.5553546
21
-80.1481058
0
LINE
8
0
10
150.5553546
20
-80.1481058
11
147.4070061
21
-96.3449544
0
LINE
8
0
10
150.650759
20
-79.6572923
11
167.8292347
21
-82.9964497
0
LINE
8
0
10
167.8292347
20
-82.9964497
11
170.9775832
21
-66.7996011
0
LINE
8
0
10
170.9775832
20
-66.7996011
11
153.7991075
21
-63.4604437
0
LINE
8
0
10
153.7991075
20
-63.4604437
11
150.650759
21
-79.6572923
0
LINE
8
0
10
153.8945119
20
-62.9696302
11
171.0729876
21
-66.3087876
0
LINE
8
0
10
171.0729876
20
-66.3087876
11
174.2213361
21
-50.111939
0
LINE
8
0
10
174.2213361
20
-50.111939
11
157.0428604
21
-46.7727816
0
LINE
8
0
10
157.0428604
20
-46.7727816
11
153.8945119
21
-62.9696302
0
LINE
8
0
10
165.1730028
20
-101.6789008
11
182.2905859
21
-105.3173554
0
LINE
8
0
10
182.2905859
20
-105.3173554
11
185.7211288
21
-89.17792
0
LINE
8
0
10
185.7211288
20
-89.17792
11
168.6035457
21
-85.5394654
0
LINE
8
0
10
168.6035457
20
-85.5394654
11
165.1730028
21
-101.6789008
0
LINE
8
0
10
168.7075015
20
-85.0503916
11
185.8250846
21
-88.6888462
0
LINE
8
0
10
185.8250846
20
-88.6888462
11
189.2556275
21
-72.5494108
0
LINE
8
0
10
189.2556275
20
-72.5494108
11
172.1380444
21
-68.9109562
0
LINE
8
0
10
172.1380444
20
-68.9109562
11
168.7075015
21
-85.0503916
0
LINE
8
0
10
172.2420002
20
-68.4218824
11
189.3595833
21
-72.060337
0
LINE
8
0
10
189.3595833
20
-72.060337
11
192.7901262
21
-55.9209016
0
LINE
8
0
10
192.7901262
20
-55.9209016
11
175.6725431
21
-52.282447
0
LINE
8
0
10
175.6725431
20
-52.282447
11
172.2420002
21
-68.4218824
0
LINE
8
0
10
156.8126605
20
-117.7460143
11
172.4052747
21
-125.690848
0
LINE
8
0
10
172.4052747
20
-125.690848
11
179.8961179
21
-110.9892403
0
LINE
8
0
10
179.8961179
20
-110.9892403
11
164.3035037
21
-103.0444066
0
LINE
8
0
10
164.3035037
20
-103.0444066
11
156.8126605
21
-117.7460143
0
LINE
8
0
10
173.2608352
20
-126.3091898
11
186.2658696
21
-138.0189754
0
LINE
8
0
10
186.2658696
20
-138.0189754
11
197.3065246
21
-125.7570858
0
LINE
8
0
10
197.3065246
20
-125.7570858
11
184.3014902
21
-114.0473002
0
LINE
8
0
10
184.3014902
20
-114.0473002
11
173.2608352
21
-126.3091898
0
ENDSEC
0
EOF