0
SECTION
2
HEADER
9
$INSUNITS
70
4
0
ENDSEC
0
SECTION
2
TABLES
0
TABLE
2
LTYPE
0
LTYPE
72
65
70
64
2
CONTINUOUS
3
______
73
0
40
0
0
ENDTAB
0
TABLE
2
LAYER
0
ENDTAB
0
ENDSEC
0
SECTION
2
ENTITIES
0
LINE
8
0
10
90
20
-109.5
11
110
21
-109.5
0
LINE
8
0
10
110
20
-109.5
11
110
21
-96.5012863
0
LINE
8
0
10
90
20
-109.5
11
90
21
-56.5
0
LINE
8
0
10
110
20
-87.4759218
11
110
21
-56.5
0
LINE
8
0
10
110
20
-56.5
11
90
21
-56.5
0
LINE
8
0
10
110
20
-96.5012863
11
128.9521986
21
-98.4932426
0
LINE
8
0
10
128.9521986
20
-98.4932426
11
129.731838
21
-91.0754691
0
LINE
8
0
10
110
20
-87.4759218
11
114.6017692
21
-43.693013
0
LINE
8
0
10
132.698812
20
-62.8465977
11
134.4922072
21
-45.7835822
0
LINE
8
0
10
134.4922072
20
-45.7835822
11
114.6017692
21
-43.693013
0
LINE
8
0
10
129.731838
20
-91.0754691
11
146.6374252
21
-93.753051
0
LINE
8
0
10
132.698812
20
-62.8465977
11
136.5556311
21
-38.4956
0
LINE
8
0
10
154.2817032
20
-54.42665
11
156.3093979
21
-41.6242893
0
LINE
8
0
10
156.3093979
20
-41.6242893
11
136.5556311
21
-38.4956
0
LINE
8
0
10
145.9414609
20
-97.3334771
11
164.0697234
21
-100.8572544
0
LINE
8
0
10
146.6374252
20
-93.753051
11
145.9414609
21
-97.3334771
0
LINE
8
0
10
175.3351707
20
-50.9328105
11
175.6868813
21
-49.1234163
0
LINE
8
0
10
175.6868813
20
-49.1234163
11
156.0543376
21
-45.3072364
0
LINE
8
0
10
156.0543376
20
-45.3072364
11
154.2817032
21
-54.42665
0
LINE
8
0
10
168.1103336
20
-103.5811755
11
183.2533807
21
-106.7999295
0
LINE
8
0
10
183.2533807
20
-106.7999295
11
194.2727003
21
-54.9581067
0
LINE
8
0
10
164.0697234
20
-100.8572544
11
163.9421616
21
-101.4573857
0
LINE
8
0
10
194.2727003
20
-54.9581067
11
175.3351707
21
-50.9328105
0
LINE
8
0
10
155.1314142
20
-118.2922843
11
172.0800464
21
-126.9280437
0
LINE
8
0
10
175.9885217
20
-121.4116914
11
181.5773642
21
-110.4429703
0
LINE
8
0
10
181.5773642
20
-110.4429703
11
168.1103336
21
-103.5811755
0
LINE
8
0
10
163.9421616
20
-101.4573857
11
163.7572337
21
-101.3631603
0
LINE
8
0
10
163.7572337
20
-101.3631603
11
155.1314142
21
-118.2922843
0
LINE
8
0
10
172.0800464
20
-126.9280437
11
186.3583874
21
-139.7843197
0
LINE
8
0
10
186.3583874
20
-139.7843197
11
199.0718689
21
-125.664568
0
LINE
8
0
10
199.0718689
20
-125.664568
11
184.2089724
21
-112.2819559
0
LINE
8
0
10
184.2089724
20
-112.2819559
11
175.9885217
21
-121.4116914
0
ENDSEC
0
EOF